<?xml version="1.0" encoding="UTF-8"?><svg id="Ebene_1" xmlns="http://www.w3.org/2000/svg" xmlns:xlink="http://www.w3.org/1999/xlink" viewBox="0 0 391.14 64.7"><defs><style>.cls-1{fill:none;}.cls-2{clip-path:url(#clippath);}.cls-3{fill:#181716;}.cls-4{clip-path:url(#clippath-1);}.cls-5{clip-path:url(#clippath-4);}.cls-6{clip-path:url(#clippath-3);}.cls-7{clip-path:url(#clippath-2);}.cls-8{clip-path:url(#clippath-7);}.cls-9{clip-path:url(#clippath-8);}.cls-10{clip-path:url(#clippath-6);}.cls-11{clip-path:url(#clippath-5);}</style><clipPath id="clippath"><rect class="cls-1" x="100.23" y="12.78" width="49.95" height="51.49"/></clipPath><clipPath id="clippath-1"><rect class="cls-1" x="271.08" width="17.3" height="64.69"/></clipPath><clipPath id="clippath-2"><rect class="cls-1" x="52.59" y=".89" width="45.2" height="63.3"/></clipPath><clipPath id="clippath-3"><rect class="cls-1" x="151.95" y=".18" width="50.06" height="64.09"/></clipPath><clipPath id="clippath-4"><rect class="cls-1" x="205.83" y="13.13" width="44.07" height="51.56"/></clipPath><clipPath id="clippath-5"><rect class="cls-1" x="334.07" y="18.66" width="57.07" height="46.04"/></clipPath><clipPath id="clippath-6"><rect class="cls-1" y=".89" width="52.31" height="63.26"/></clipPath><clipPath id="clippath-7"><rect class="cls-1" x="294.24" y=".89" width="40.38" height="63.18"/></clipPath><clipPath id="clippath-8"><rect class="cls-1" x="250.14" y="1" width="21.5" height="63.18"/></clipPath></defs><g class="cls-2"><path class="cls-3" d="M119.31,38.1c-.19,0-.38,0-.57,0-1.13,2.49-2.26,4.98-3.49,7.7h7.12c-1.08-2.73-2.07-5.22-3.05-7.71m4.95-25.32c2.97,5.8,5.85,11.2,8.52,16.71,4.01,8.26,7.79,16.62,11.82,24.87,1.62,3.32,3.62,6.46,5.58,9.9-2.9,0-5.85,.01-8.8,0-3.44-.02-6.88-.12-10.32-.07-1.45,.02-2.05-.28-2.31-1.94-.42-2.73-1.32-5.39-2.15-8.05-.13-.41-.92-.86-1.42-.87-4.08-.08-8.17-.09-12.26-.03-.43,0-1.04,.42-1.25,.81-.47,.86-.74,1.83-1.15,2.91,1.23,.14,2.26,.26,3.43,.39-.46,2.26-.9,4.4-1.36,6.66h-12.38c.27-1.05,.33-1.92,.69-2.63,1.39-2.74,2.97-5.38,4.31-8.15,1.2-2.5,2.09-5.14,3.26-7.66,3.05-6.6,6.15-13.18,9.29-19.74,2.05-4.29,4.21-8.53,6.49-13.12"/></g><g class="cls-4"><path class="cls-3" d="M279.58,7c-1.61,2.63-2.14,5.48-2.15,8.5q-.02,4.96,4.81,4.47c.22-.02,.42-.15,.61-.23,.85-4.57-.71-10.87-3.27-12.75m-2.15,38.4c0,3.31,.07,6.31-.03,9.29-.06,1.84,.8,2.72,2.42,2.71,1.59,0,1.94-1.19,1.92-2.64-.04-4.11,0-8.22,0-12.33,0-4.32-2.03-7.33-5.95-8.82q-4.23-1.6-4.23-6.26c0-6.08-.01-12.17,.01-18.25,.04-9.26,6.16-10.18,12.93-8.31,2.53,.7,3.39,3.53,3.5,5.98,.24,5.02,.07,10.07,.07,15.47-2.54,0-5.37-.09-8.19,.05-.9,.04-2.37,.51-2.52,1.09-.39,1.47-.45,3.18,1.45,3.99,2.95,1.26,5.66,2.97,7.27,5.87,.99,1.79,2.05,3.82,2.15,5.78,.28,5.67,.14,11.37,.08,17.06-.05,5.06-2.75,8.25-7.1,8.57-4.81,.35-9.39-3.02-9.88-7.66-.36-3.44-.21-6.94-.18-10.41,0-.4,.66-1.11,1.06-1.14,1.66-.13,3.34-.05,5.22-.05"/></g><g class="cls-7"><path class="cls-3" d="M89.53,42.57c2.78,7.47,5.17,13.89,8.03,21.58-6.82,0-12.2,.15-17.57-.12-1.14-.06-2.56-1.39-3.25-2.51-2.16-3.5-4.04-7.19-6.92-12.4-.82,5.72-1.43,9.95-2.1,14.6h-15.14v-26.81c6.17,0,11.95,.13,17.73-.04,5.02-.14,7.75-3.6,8.03-7.97,.26-4.11-2.02-7.72-6.57-8.72-1.16-.25-3.49,.31-3.71,1.01-2.52,7.78-8.63,6.17-14.81,5.74V.89c10.36,1.02,21.15,.25,30.61,3.43,15.41,5.19,18.77,25.03,6.38,37.77-.39,.4-.94,.63-.71,.48"/></g><g class="cls-6"><path class="cls-3" d="M201.79,64.27h-19.62c0-1.36,0-2.61,0-3.86,0-11.68,.01-23.36,0-35.04,0-4.41-2.18-7.07-5.67-6.99-3.55,.09-5.65,2.62-5.67,7.04-.04,11.92-.02,23.83-.04,35.75,0,.92-.14,1.83-.23,2.98h-17.99c-.19-.31-.41-.51-.41-.71-.02-13.68-.55-27.39,.12-41.04,.82-16.7,12.65-23.3,28.31-22.07,12.97,1.02,21.32,11.3,21.38,24.18,.06,12.15,.01,24.3,0,36.46,0,1.03-.12,2.06-.19,3.31"/></g><g class="cls-5"><path class="cls-3" d="M249.9,64.12c-7.28,0-12.99,.14-18.68-.13-.96-.05-2.17-1.72-2.68-2.89-1.88-4.29-5.75-5.22-8.13-1.13-3.08,5.31-7.35,5.04-12.58,4.35v-12.89c3.11-.18,6.39-.37,10.84-.63-.88-3.47-1.23-6.62-2.49-9.34-1.84-3.97-3.98-7.91-6.63-11.37-3.84-5.03-4.27-10.45-3.26-16.97h42.23v8.22h-25.54c9.14,14.53,17.61,28,26.91,42.78"/></g><g class="cls-11"><path class="cls-3" d="M373.16,36.22c-5.5-6.62-20.97-6.3-25.42,0h25.42Zm-9.66,2.77v.22c-3.02,0-6.05,0-9.07,0-4.62-.01-6.52,3.23-5.9,6.82,.36,2.08,3.47,4.98,5.6,5.21,5.48,.59,11.11-.3,16.67-.21,5.56,.09,5.55-3.33,5.56-7.38,0-4.98-3.05-4.91-6.57-4.69-2.08,.14-4.18,.02-6.28,.02m-14.85-11.18c-4.23-5.82-.77-8.67,3.98-8.86,12.77-.52,25.58-.18,38.51-.18v45.35c-5.77-1.96-12.5,3.81-15.96-4.47-8.24,7.7-18.24,4.88-27.15,2.69-7.31-1.79-13.61-6.74-13.95-16.24-.29-8.1,3.13-13.34,14.57-18.29"/></g><g class="cls-10"><path class="cls-3" d="M12.83,64.16v-23.59c-.33-.03-.66-.07-.99-.1-.41,.73-.82,1.47-1.35,2.42-1.06-2.42-1.97-3.89-5.05-2.36-.99,.49-3.78-2.06-5.25-3.67-.28-.31-.62-3.41,1.96-4.66,6.44-3.12,11.26-7.44,10.48-15.82-.4-4.34,.52-8.82,1.15-13.2,.12-.86,1.65-2.16,2.55-2.17,11.73-.15,23.46-.1,35.98-.1-.24,3.44-.09,6.67-.88,9.66-.29,1.11-2.76,2.25-4.28,2.31-6.04,.26-12.11,.11-18.5,.11v12.66h10.35c.48,2.16,.87,3.91,1.42,6.38H12.49c0,.48-.01,.96-.02,1.44H45.09c-2.45,3.18-5.47,1.95-8.35,1.94-3.06-.01-6.12,.25-9.45,.41v28.35H12.83Z"/></g><g class="cls-8"><path class="cls-3" d="M310.67,15.87c1.93-3.92,3.99-7.78,5.74-11.78,.94-2.15,1.93-3.38,4.56-3.18,3.55,.26,7.13,.08,10.7,.03,1.77-.02,2.56,.71,2.47,2.51-.09,1.92,.18,3.71-1.66,5.33-1.14,1-1.64,3.12-1.77,4.78-.26,3.39-.13,6.82-.07,10.23,.04,2.18-.97,3.05-3.08,3.01-2.87-.06-5.75,.08-8.61-.04-4.14-.16-4.34,1.03-5.68,4.72-.28,.76-.1,1.69-.11,2.54-.01,1.38,0,2.76,0,4.67,4.87,0,9.49,0,14.11,0,2.98,0,3.22,.23,3.22,3.14,0,4.56,0,9.11,0,13.78,1.29,.13,2.27,.24,3.76,.39,.14,2.03,.54,4.17,.29,6.23-.08,.7-1.76,1.69-2.75,1.73-4.02,.18-8.06,0-12.09,.05-1.28,.01-1.83-.39-2.31-1.65-1.58-4.19-3.36-8.31-5.12-12.43-.25-.59-.76-1.08-1.15-1.62-.21,.04-.42,.07-.63,.11-.2,2.86-.51,5.72-.59,8.58-.2,7-.16,7-7.03,6.99-1.94,0-3.87-.04-5.81-.07-1.84-.03-2.84-.75-2.83-2.8,.05-19.23,.05-38.47,.03-57.7,0-1.84,.87-2.46,2.57-2.45,3.49,.02,6.98-.02,10.47-.07,1.64-.02,2.39,.66,2.36,2.37-.07,4.09-.02,8.18-.02,12.27,.34,.1,.67,.2,1.01,.3"/></g><g class="cls-9"><path d="M264.5,1.79c1.08,.02,2.16,.03,3.25,.02v-.71h-5.01c-.03,.66-.06,1.24-.08,1.83h-1.95V1h-10.56V5.49h4.78V59.53h-4.78v4.65h10.15v-2.22c1.48,0,1.57,1.24,2.01,1.93,1.83,.23,3.64,.26,5.45,.26v-.89h-4.18c0-.29,0-.57,0-.84-.01-11.79-.04-23.59-.03-35.38,0-8.13,.08-16.25,.1-24.38,0-.68,.18-.88,.87-.87Zm-1.78,39.69h-6.77c-.02-.25-.05-.47-.05-.69-.01-5.57-.01-11.14-.05-16.71,0-.7,.17-.93,.9-.92,1.96,.05,3.92,.02,5.98,.02v18.3Z"/></g></svg>